<?xml version="1.0" encoding="UTF-8" standalone="no"?>
<svg
   width="24"
   height="24"
   viewBox="0 0 24 24"
   fill="none"
   version="1.1"
   id="svg17"
   xmlns="http://www.w3.org/2000/svg"
   xmlns:svg="http://www.w3.org/2000/svg">
  <g
     clip-path="url(#clip0_4303_1230)"
     id="g6"
     transform="scale(0.25)">
    <g
       clip-path="url(#clip1_4303_1230)"
       id="g5">
      <path
         d="M 0.999512,42.4717 C 0.999876,39.4985 3.12964,37.564 5.78905,38.8936 L 31.998,51.999 27.5547,69.7783 2.21092,57.1064 C 0.855902,56.4289 0.99966,55.0432 0.999512,53.5283 Z"
         fill="url(#paint0_linear_4303_1230)"
         id="path1"
         style="fill:url(#paint0_linear_4303_1230)" />
      <path
         d="M 93.7891,34.8945 C 95.1441,35.5721 95,36.9576 95,38.4727 v 11.0546 c 0,2.9736 -2.1295,4.908 -4.7891,3.5782 L 64,40 68.4434,22.2207 Z"
         fill="url(#paint1_linear_4303_1230)"
         id="path2"
         style="fill:url(#paint1_linear_4303_1230)" />
      <path
         d="M 93.7891,34.8945 C 95.1441,35.5721 96,36.9576 96,38.4727 v 12.5839 c -3e-4,3.0297 -1.7121,5.7993 -4.4219,7.1543 L 54.8574,76.5703 60.5703,53.7129 93.1055,37.4473 C 93.6536,37.1732 94,36.6129 94,36 94,35.3871 93.6536,34.8268 93.1055,34.5527 Z"
         fill="url(#paint2_linear_4303_1230)"
         id="path3"
         style="fill:url(#paint2_linear_4303_1230)" />
      <path
         d="M 35.4277,38.2832 2.89453,54.5527 C 2.34637,54.8268 2,55.3871 2,56 c 1e-5,0.6129 0.34637,1.1732 0.89453,1.4473 L 2.21094,57.1055 C 0.855918,56.4279 0,55.0424 0,53.5273 V 40.9434 C 3.44787e-4,37.9137 1.71212,35.1441 4.42188,33.7891 L 41.1426,15.4277 Z"
         fill="url(#paint3_linear_4303_1230)"
         id="path4"
         style="fill:url(#paint3_linear_4303_1230)" />
      <path
         d="M 48.5263,77.8978 65.4392,10.2462 C 66.7403,5.04164 62.8039,0 57.4392,0 c -3.784,0 -7.0823,2.57527 -8,6.24621 L 32.3719,74.5152 c -0.2456,0.9825 -0.3197,2 -0.2189,3.0078 l 1.6589,16.5892 c 0.1072,1.0717 1.009,1.8878 2.086,1.8878 0.6904,0 1.3365,-0.3399 1.7276,-0.9087 l 9.1476,-13.3056 c 0.8118,-1.1809 1.4056,-2.4977 1.7532,-3.8879 z"
         fill="url(#paint4_linear_4303_1230)"
         id="path5"
         style="fill:url(#paint4_linear_4303_1230)" />
    </g>
  </g>
  <defs
     id="defs17">
    <linearGradient
       id="paint0_linear_4303_1230"
       x1="-0.00048816099"
       y1="46.764801"
       x2="38.393902"
       y2="65.956398"
       gradientUnits="userSpaceOnUse">
      <stop
         stop-color="#136C6C"
         id="stop6" />
      <stop
         offset="1"
         stop-color="#1A7F7C"
         id="stop7" />
    </linearGradient>
    <linearGradient
       id="paint1_linear_4303_1230"
       x1="57.999298"
       y1="26.713499"
       x2="96.372597"
       y2="45.436699"
       gradientUnits="userSpaceOnUse">
      <stop
         stop-color="#1A7F7C"
         id="stop8" />
      <stop
         offset="1"
         stop-color="#136C6C"
         id="stop9" />
    </linearGradient>
    <linearGradient
       id="paint2_linear_4303_1230"
       x1="96"
       y1="44.551102"
       x2="49.908199"
       y2="67.877701"
       gradientUnits="userSpaceOnUse">
      <stop
         stop-color="#2BDABE"
         id="stop10" />
      <stop
         offset="1"
         stop-color="#1EC8B0"
         id="stop11" />
    </linearGradient>
    <linearGradient
       id="paint3_linear_4303_1230"
       x1="45.636398"
       y1="23.2024"
       x2="-0.481435"
       y2="46.417"
       gradientUnits="userSpaceOnUse">
      <stop
         stop-color="#1EC8B0"
         id="stop12" />
      <stop
         offset="1"
         stop-color="#2BDABE"
         id="stop13" />
    </linearGradient>
    <linearGradient
       id="paint4_linear_4303_1230"
       x1="55.686501"
       y1="50"
       x2="37.383999"
       y2="45.5784"
       gradientUnits="userSpaceOnUse">
      <stop
         offset="0.137772"
         stop-color="#0067BF"
         id="stop14" />
      <stop
         offset="0.682692"
         stop-color="#0FAFFF"
         id="stop15" />
      <stop
         offset="0.836727"
         stop-color="#0094F0"
         id="stop16" />
    </linearGradient>
    <clipPath
       id="clip0_4303_1230">
      <rect
         width="96"
         height="96"
         fill="#ffffff"
         id="rect16"
         x="0"
         y="0" />
    </clipPath>
    <clipPath
       id="clip1_4303_1230">
      <rect
         width="96"
         height="96"
         fill="#ffffff"
         id="rect17"
         x="0"
         y="0" />
    </clipPath>
  </defs>
</svg>
