<?xml version="1.0" encoding="UTF-8" standalone="no"?>
<!-- Source: https://commons.wikimedia.org/wiki/File:Microsoft_logo_(1980).svg -->
<!-- License: Public domain -->
<svg xmlns:dc="http://purl.org/dc/elements/1.1/" xmlns:cc="http://creativecommons.org/ns#" xmlns:rdf="http://www.w3.org/1999/02/22-rdf-syntax-ns#" xmlns:svg="http://www.w3.org/2000/svg" xmlns="http://www.w3.org/2000/svg" id="svg8" version="1.1" viewBox="0 0 264.58333 52.916669" height="200" width="1000">
  <defs id="defs2"/>
  <metadata id="metadata5">
    <rdf:RDF>
      <cc:Work rdf:about="">
        <dc:format>image/svg+xml</dc:format>
        <dc:type rdf:resource="http://purl.org/dc/dcmitype/StillImage"/>
        <dc:title/>
      </cc:Work>
    </rdf:RDF>
  </metadata>
  <g id="layer2">
    <path style="fill:#000000;fill-opacity:1;stroke:none;stroke-width:0.264583px;stroke-linecap:butt;stroke-linejoin:miter;stroke-opacity:1" d="M 0,52.916667 33.602084,20.902084 V 34.925001 L 48.418751,20.902084 v 13.758334 h 8.73125 V 0.26458334 L 42.333334,15.08125 V 0.26458334 L 0,42.597917 Z" id="path847"/>
    <path style="fill:#000000;fill-opacity:1;stroke:none;stroke-width:0.264583px;stroke-linecap:butt;stroke-linejoin:miter;stroke-opacity:1" d="M 67.468752,0.26458334 58.737501,9.2604169 V 34.660418 h 8.731251 z" id="path849"/>
    <path transform="scale(0.26458334)" d="m 301.16016,1 c -21.9507,4.4255933 -39.58425,23.383151 -45.24024,48 H 255 V 53.673828 78.277344 82 h 0.69727 c 5.39479,25.07886 23.17116,44.48439 45.38085,49 H 343 v -30 h -20 v -0.004 C 322.83335,100.999 322.66667,101 322.5,101 303.44618,101 288,85.553824 288,66.5 288,47.446176 303.44618,32 322.5,32 H 342 L 372,1 Z" style="fill:#000000;fill-opacity:1;stroke:none;stroke-width:0.567005;stop-color:#000000" id="path848"/>
    <path transform="scale(0.26458334)" d="m 383,1 -33,34 v 96 h 33 V 33 h 18.5 c 9.66498,0 17.5,7.835017 17.5,17.5 0,9.664983 -7.83502,17.5 -17.5,17.5 H 387 L 521,199 V 157 L 487,123 443.33594,78.365234 A 47.000001,50 0 0 0 451,51 47.000001,50 0 0 0 405.00977,1.0117188 L 405,1 Z" style="display:inline;fill:#000000;fill-opacity:1;stroke:none;stroke-width:0.999999px;stroke-linecap:butt;stroke-linejoin:miter;stroke-opacity:1" id="path864"/>
    <path transform="scale(0.26458334)" d="M 525.86523,1 A 68,66.499996 0 0 0 458,67.5 68,66.499996 0 0 0 526,134 68,66.499996 0 0 0 594,67.5 68,66.499996 0 0 0 526,1 68,66.499996 0 0 0 525.86523,1 Z m -1.60546,31 A 36.499998,36.000002 0 0 1 524.5,32 36.499998,36.000002 0 0 1 561,68 36.499998,36.000002 0 0 1 524.5,104 36.499998,36.000002 0 0 1 488,68 36.499998,36.000002 0 0 1 524.25977,32 Z" style="display:inline;fill:#000000;fill-opacity:1;stroke:none;stroke-width:0.567001;stop-color:#000000" id="path881"/>
    <path transform="scale(0.26458334)" d="m 620.5,1 c -22.36753,-5.5e-7 -40.5,18.132467 -40.5,40.5 0,22.367533 18.13247,40.500001 40.5,40.5 h 2.5 c 11.59798,0 21,4.477153 21,10 0,5.522847 -9.40202,10 -21,10 h -40 v 29 h 62.99999 c 18.43887,-4.06734 31.56367,-20.13433 31.56446,-38.605479 C 677.56392,78.310576 669.87456,65.292316 657.38281,58.226562 640.78385,50.357003 632.38254,48.035667 620.15625,48 615.01343,46.201489 612.00162,43.42696 612,40.486328 611.9995,36.896878 616.47115,33.613784 623.55859,32 H 677 C 686.99999,16.999999 695.99998,9 709,1 h -84 z" style="font-variation-settings:normal;opacity:1;vector-effect:none;fill:#000000;fill-opacity:1;stroke:none;stroke-width:0.567001;stroke-linecap:butt;stroke-linejoin:miter;stroke-miterlimit:4;stroke-dasharray:none;stroke-dashoffset:0;stroke-opacity:1;stop-color:#000000;stop-opacity:1" id="rect942"/>
    <path transform="scale(0.26458334)" d="M 743,0 A 68.999999,68.500001 0 0 0 674,68.5 68.999999,68.500001 0 0 0 743,137 68.999999,68.500001 0 0 0 812,68.5 68.999999,68.500001 0 0 0 743,0 Z m 0.5,32 A 37.499999,36.500002 0 0 1 781,68.5 37.499999,36.500002 0 0 1 743.5,105 37.499999,36.500002 0 0 1 706,68.5 37.499999,36.500002 0 0 1 743.5,32 Z" style="font-variation-settings:normal;opacity:1;vector-effect:none;fill:#000000;fill-opacity:1;stroke:none;stroke-width:0.567001;stroke-linecap:butt;stroke-linejoin:miter;stroke-miterlimit:4;stroke-dasharray:none;stroke-dashoffset:0;stroke-opacity:1;stop-color:#000000;stop-opacity:1" id="path881-7"/>
    <path id="path1086" d="m 232.03959,22.754167 v -8.73125 h -8.46667 V 8.9958336 h 9.26042 l 8.73125,-8.73125026 H 223.83751 L 214.84167,9.2604169 V 52.652085 l 8.73125,-7.672917 V 22.754167 Z" style="fill:#000000;fill-opacity:1;stroke:none;stroke-width:0.264583px;stroke-linecap:butt;stroke-linejoin:miter;stroke-opacity:1"/>
    <path style="fill:#000000;fill-opacity:1;stroke:none;stroke-width:0.264583px;stroke-linecap:butt;stroke-linejoin:miter;stroke-opacity:1" d="m 251.88334,8.9958335 3.70414,-2e-7 8.7313,-8.73125014 h -20.10839 l -8.73122,8.73125034 h 7.67292 V 34.660417 l 8.7312,-7.672917 z" id="path1086-2"/>
  </g>
</svg>
